<mxfile host="app.diagrams.net" modified="2023-03-06T13:47:34.986Z" agent="5.0 (Windows NT 10.0; Win64; x64) AppleWebKit/537.36 (KHTML, like Gecko) Chrome/110.0.0.0 Safari/537.36" etag="XNoiL1v3tdQBqhvQc-O7" version="21.0.2" type="github">
  <diagram name="Página-1" id="QyqMHi6FCJQUmbp4RluL">
    <mxGraphModel dx="954" dy="584" grid="0" gridSize="10" guides="1" tooltips="1" connect="1" arrows="1" fold="1" page="1" pageScale="1" pageWidth="1169" pageHeight="827" math="0" shadow="0">
      <root>
        <mxCell id="0" />
        <mxCell id="1" parent="0" />
        <mxCell id="iLDF7jWk_mezcc8OdMnJ-2" value="ESTADO" style="rounded=0;whiteSpace=wrap;html=1;labelBackgroundColor=none;labelBorderColor=none;fontStyle=1;aspect=fixed;fontSize=10;" parent="1" vertex="1">
          <mxGeometry x="266" y="120" width="88.95" height="45" as="geometry" />
        </mxCell>
        <mxCell id="iLDF7jWk_mezcc8OdMnJ-3" value="CONGRESSO" style="rounded=0;whiteSpace=wrap;html=1;labelBackgroundColor=none;fontStyle=1;fontSize=10;" parent="1" vertex="1">
          <mxGeometry x="542" y="120" width="85" height="45" as="geometry" />
        </mxCell>
        <mxCell id="iLDF7jWk_mezcc8OdMnJ-4" value="votos&lt;br&gt;PROJETO &lt;br&gt;LEI" style="rounded=0;whiteSpace=wrap;html=1;labelBackgroundColor=none;fontStyle=1;fontSize=10;" parent="1" vertex="1">
          <mxGeometry x="545" y="348" width="85" height="45" as="geometry" />
        </mxCell>
        <mxCell id="iLDF7jWk_mezcc8OdMnJ-7" value="Pertence" style="rhombus;whiteSpace=wrap;html=1;fontStyle=2;labelBackgroundColor=none;rounded=0;fontSize=8;" parent="1" vertex="1">
          <mxGeometry x="418.5" y="110" width="59" height="59" as="geometry" />
        </mxCell>
        <mxCell id="iLDF7jWk_mezcc8OdMnJ-17" value="Apresentação" style="rhombus;whiteSpace=wrap;html=1;fontSize=8;fontStyle=2;labelBackgroundColor=none;rounded=0;" parent="1" vertex="1">
          <mxGeometry x="558" y="209" width="59" height="59" as="geometry" />
        </mxCell>
        <mxCell id="iLDF7jWk_mezcc8OdMnJ-18" value="" style="endArrow=none;html=1;rounded=0;fontSize=11;fontColor=default;entryX=0.5;entryY=1;entryDx=0;entryDy=0;labelBackgroundColor=none;exitX=0.5;exitY=0;exitDx=0;exitDy=0;" parent="1" source="iLDF7jWk_mezcc8OdMnJ-4" target="iLDF7jWk_mezcc8OdMnJ-17" edge="1">
          <mxGeometry width="50" height="50" relative="1" as="geometry">
            <mxPoint x="621" y="350" as="sourcePoint" />
            <mxPoint x="592" y="281" as="targetPoint" />
          </mxGeometry>
        </mxCell>
        <mxCell id="iLDF7jWk_mezcc8OdMnJ-19" value="" style="endArrow=none;html=1;rounded=0;fontSize=11;fontColor=default;labelBackgroundColor=none;" parent="1" edge="1">
          <mxGeometry width="50" height="50" relative="1" as="geometry">
            <mxPoint x="587" y="210" as="sourcePoint" />
            <mxPoint x="587" y="165" as="targetPoint" />
          </mxGeometry>
        </mxCell>
        <mxCell id="Q12_xRJpywkmpFExpaVE-6" value="REGIÃO" style="rounded=0;whiteSpace=wrap;html=1;labelBackgroundColor=none;labelBorderColor=none;fontStyle=1;aspect=fixed;fontSize=10;" parent="1" vertex="1">
          <mxGeometry x="141" y="314" width="88.95" height="45" as="geometry" />
        </mxCell>
        <mxCell id="Q12_xRJpywkmpFExpaVE-10" style="edgeStyle=orthogonalEdgeStyle;rounded=0;orthogonalLoop=1;jettySize=auto;html=1;exitX=0.5;exitY=0.5;exitDx=0;exitDy=0;exitPerimeter=0;" parent="1" source="Q12_xRJpywkmpFExpaVE-7" edge="1">
          <mxGeometry relative="1" as="geometry">
            <mxPoint x="492.16666666666674" y="25.33333333333337" as="targetPoint" />
          </mxGeometry>
        </mxCell>
        <mxCell id="Q12_xRJpywkmpFExpaVE-7" value="Actor" style="shape=umlActor;verticalLabelPosition=bottom;verticalAlign=top;html=1;outlineConnect=0;" parent="1" vertex="1">
          <mxGeometry x="442" y="18" width="12" height="14" as="geometry" />
        </mxCell>
        <mxCell id="Q12_xRJpywkmpFExpaVE-9" value="&lt;font style=&quot;font-size: 8px;&quot;&gt;CONGRESSISTA 1&lt;/font&gt;" style="text;html=1;strokeColor=none;fillColor=none;align=center;verticalAlign=middle;whiteSpace=wrap;rounded=0;" parent="1" vertex="1">
          <mxGeometry x="496" y="8" width="74" height="28" as="geometry" />
        </mxCell>
        <mxCell id="Q12_xRJpywkmpFExpaVE-11" value="Nome" style="ellipse;whiteSpace=wrap;html=1;labelBackgroundColor=none;rounded=0;fontSize=8;" parent="1" vertex="1">
          <mxGeometry x="508" y="36" width="45" height="28" as="geometry" />
        </mxCell>
        <mxCell id="Q12_xRJpywkmpFExpaVE-18" value="Distrito" style="ellipse;whiteSpace=wrap;html=1;labelBackgroundColor=none;rounded=0;fontSize=8;" parent="1" vertex="1">
          <mxGeometry x="575" y="15" width="45" height="28" as="geometry" />
        </mxCell>
        <mxCell id="Q12_xRJpywkmpFExpaVE-19" value="Partido" style="ellipse;whiteSpace=wrap;html=1;labelBackgroundColor=none;rounded=0;fontSize=8;" parent="1" vertex="1">
          <mxGeometry x="602" y="46" width="45" height="28" as="geometry" />
        </mxCell>
        <mxCell id="Q12_xRJpywkmpFExpaVE-20" value="Data início" style="ellipse;whiteSpace=wrap;html=1;labelBackgroundColor=none;rounded=0;fontSize=8;" parent="1" vertex="1">
          <mxGeometry x="553" y="53" width="45" height="28" as="geometry" />
        </mxCell>
        <mxCell id="Q12_xRJpywkmpFExpaVE-23" value="" style="endArrow=none;html=1;rounded=0;entryX=0.5;entryY=0;entryDx=0;entryDy=0;exitX=0.5;exitY=1;exitDx=0;exitDy=0;" parent="1" source="Q12_xRJpywkmpFExpaVE-20" target="iLDF7jWk_mezcc8OdMnJ-3" edge="1">
          <mxGeometry width="50" height="50" relative="1" as="geometry">
            <mxPoint x="646" y="221" as="sourcePoint" />
            <mxPoint x="696" y="171" as="targetPoint" />
          </mxGeometry>
        </mxCell>
        <mxCell id="Q12_xRJpywkmpFExpaVE-24" value="" style="endArrow=none;html=1;rounded=0;entryX=0.5;entryY=0;entryDx=0;entryDy=0;exitX=0.5;exitY=1;exitDx=0;exitDy=0;" parent="1" source="Q12_xRJpywkmpFExpaVE-19" target="iLDF7jWk_mezcc8OdMnJ-3" edge="1">
          <mxGeometry width="50" height="50" relative="1" as="geometry">
            <mxPoint x="586" y="91" as="sourcePoint" />
            <mxPoint x="595" y="130" as="targetPoint" />
          </mxGeometry>
        </mxCell>
        <mxCell id="Q12_xRJpywkmpFExpaVE-25" value="" style="endArrow=none;html=1;rounded=0;entryX=0.5;entryY=0;entryDx=0;entryDy=0;exitX=0.5;exitY=1;exitDx=0;exitDy=0;" parent="1" source="Q12_xRJpywkmpFExpaVE-11" target="iLDF7jWk_mezcc8OdMnJ-3" edge="1">
          <mxGeometry width="50" height="50" relative="1" as="geometry">
            <mxPoint x="596" y="101" as="sourcePoint" />
            <mxPoint x="605" y="140" as="targetPoint" />
          </mxGeometry>
        </mxCell>
        <mxCell id="Q12_xRJpywkmpFExpaVE-26" value="" style="endArrow=none;html=1;rounded=0;entryX=0.378;entryY=0.958;entryDx=0;entryDy=0;entryPerimeter=0;exitX=1;exitY=0.5;exitDx=0;exitDy=0;" parent="1" source="Q12_xRJpywkmpFExpaVE-11" target="Q12_xRJpywkmpFExpaVE-18" edge="1">
          <mxGeometry width="50" height="50" relative="1" as="geometry">
            <mxPoint x="646" y="221" as="sourcePoint" />
            <mxPoint x="696" y="171" as="targetPoint" />
          </mxGeometry>
        </mxCell>
        <mxCell id="Q12_xRJpywkmpFExpaVE-27" value="" style="endArrow=none;html=1;rounded=0;entryX=0.5;entryY=0;entryDx=0;entryDy=0;exitX=1;exitY=1;exitDx=0;exitDy=0;" parent="1" source="Q12_xRJpywkmpFExpaVE-18" target="Q12_xRJpywkmpFExpaVE-19" edge="1">
          <mxGeometry width="50" height="50" relative="1" as="geometry">
            <mxPoint x="606" y="111" as="sourcePoint" />
            <mxPoint x="615" y="150" as="targetPoint" />
          </mxGeometry>
        </mxCell>
        <mxCell id="Q12_xRJpywkmpFExpaVE-31" value="&lt;font style=&quot;font-size: 8px;&quot;&gt;AC&lt;br&gt;&lt;/font&gt;" style="text;html=1;strokeColor=none;fillColor=none;align=center;verticalAlign=middle;whiteSpace=wrap;rounded=0;" parent="1" vertex="1">
          <mxGeometry x="121" y="14" width="25" height="14" as="geometry" />
        </mxCell>
        <mxCell id="Q12_xRJpywkmpFExpaVE-32" value="&lt;font style=&quot;font-size: 8px;&quot;&gt;AL&lt;br&gt;&lt;/font&gt;" style="text;html=1;strokeColor=none;fillColor=none;align=center;verticalAlign=middle;whiteSpace=wrap;rounded=0;" parent="1" vertex="1">
          <mxGeometry x="121" y="23" width="25" height="14" as="geometry" />
        </mxCell>
        <mxCell id="Q12_xRJpywkmpFExpaVE-33" value="&lt;font style=&quot;font-size: 8px;&quot;&gt;AP&lt;br&gt;&lt;/font&gt;" style="text;html=1;strokeColor=none;fillColor=none;align=center;verticalAlign=middle;whiteSpace=wrap;rounded=0;" parent="1" vertex="1">
          <mxGeometry x="121" y="36" width="25" height="14" as="geometry" />
        </mxCell>
        <mxCell id="Q12_xRJpywkmpFExpaVE-34" value="&lt;font style=&quot;font-size: 8px;&quot;&gt;AM&lt;br&gt;&lt;/font&gt;" style="text;html=1;strokeColor=none;fillColor=none;align=center;verticalAlign=middle;whiteSpace=wrap;rounded=0;" parent="1" vertex="1">
          <mxGeometry x="121" y="47" width="25" height="14" as="geometry" />
        </mxCell>
        <mxCell id="Q12_xRJpywkmpFExpaVE-35" value="&lt;font style=&quot;font-size: 8px;&quot;&gt;BA&lt;br&gt;&lt;/font&gt;" style="text;html=1;strokeColor=none;fillColor=none;align=center;verticalAlign=middle;whiteSpace=wrap;rounded=0;" parent="1" vertex="1">
          <mxGeometry x="120" y="58" width="25" height="14" as="geometry" />
        </mxCell>
        <mxCell id="Q12_xRJpywkmpFExpaVE-36" value="&lt;font style=&quot;font-size: 8px;&quot;&gt;CE&lt;br&gt;&lt;/font&gt;" style="text;html=1;strokeColor=none;fillColor=none;align=center;verticalAlign=middle;whiteSpace=wrap;rounded=0;" parent="1" vertex="1">
          <mxGeometry x="120" y="68" width="25" height="14" as="geometry" />
        </mxCell>
        <mxCell id="Q12_xRJpywkmpFExpaVE-37" value="&lt;font style=&quot;font-size: 8px;&quot;&gt;ES&lt;br&gt;&lt;/font&gt;" style="text;html=1;strokeColor=none;fillColor=none;align=center;verticalAlign=middle;whiteSpace=wrap;rounded=0;" parent="1" vertex="1">
          <mxGeometry x="120" y="79" width="25" height="14" as="geometry" />
        </mxCell>
        <mxCell id="Q12_xRJpywkmpFExpaVE-38" value="&lt;font style=&quot;font-size: 8px;&quot;&gt;GO&lt;br&gt;&lt;/font&gt;" style="text;html=1;strokeColor=none;fillColor=none;align=center;verticalAlign=middle;whiteSpace=wrap;rounded=0;" parent="1" vertex="1">
          <mxGeometry x="120" y="91" width="25" height="14" as="geometry" />
        </mxCell>
        <mxCell id="Q12_xRJpywkmpFExpaVE-39" value="&lt;font style=&quot;font-size: 8px;&quot;&gt;MA&lt;br&gt;&lt;/font&gt;" style="text;html=1;strokeColor=none;fillColor=none;align=center;verticalAlign=middle;whiteSpace=wrap;rounded=0;" parent="1" vertex="1">
          <mxGeometry x="120" y="102" width="25" height="14" as="geometry" />
        </mxCell>
        <mxCell id="Q12_xRJpywkmpFExpaVE-40" value="&lt;font style=&quot;font-size: 8px;&quot;&gt;MT&lt;br&gt;&lt;/font&gt;" style="text;html=1;strokeColor=none;fillColor=none;align=center;verticalAlign=middle;whiteSpace=wrap;rounded=0;" parent="1" vertex="1">
          <mxGeometry x="120" y="114" width="25" height="14" as="geometry" />
        </mxCell>
        <mxCell id="Q12_xRJpywkmpFExpaVE-42" value="&lt;font style=&quot;font-size: 8px;&quot;&gt;MS&lt;br&gt;&lt;/font&gt;" style="text;html=1;strokeColor=none;fillColor=none;align=center;verticalAlign=middle;whiteSpace=wrap;rounded=0;" parent="1" vertex="1">
          <mxGeometry x="120" y="125" width="25" height="14" as="geometry" />
        </mxCell>
        <mxCell id="Q12_xRJpywkmpFExpaVE-43" value="&lt;font style=&quot;font-size: 8px;&quot;&gt;MG&lt;br&gt;&lt;/font&gt;" style="text;html=1;strokeColor=none;fillColor=none;align=center;verticalAlign=middle;whiteSpace=wrap;rounded=0;" parent="1" vertex="1">
          <mxGeometry x="120" y="136" width="25" height="14" as="geometry" />
        </mxCell>
        <mxCell id="Q12_xRJpywkmpFExpaVE-44" value="&lt;font style=&quot;font-size: 8px;&quot;&gt;PA&lt;br&gt;&lt;/font&gt;" style="text;html=1;strokeColor=none;fillColor=none;align=center;verticalAlign=middle;whiteSpace=wrap;rounded=0;" parent="1" vertex="1">
          <mxGeometry x="119" y="147" width="25" height="14" as="geometry" />
        </mxCell>
        <mxCell id="Q12_xRJpywkmpFExpaVE-45" value="&lt;font style=&quot;font-size: 8px;&quot;&gt;PB&lt;br&gt;&lt;/font&gt;" style="text;html=1;strokeColor=none;fillColor=none;align=center;verticalAlign=middle;whiteSpace=wrap;rounded=0;" parent="1" vertex="1">
          <mxGeometry x="119" y="157" width="25" height="14" as="geometry" />
        </mxCell>
        <mxCell id="Q12_xRJpywkmpFExpaVE-46" value="&lt;font style=&quot;font-size: 8px;&quot;&gt;PR&lt;br&gt;&lt;/font&gt;" style="text;html=1;strokeColor=none;fillColor=none;align=center;verticalAlign=middle;whiteSpace=wrap;rounded=0;" parent="1" vertex="1">
          <mxGeometry x="119" y="167" width="25" height="14" as="geometry" />
        </mxCell>
        <mxCell id="Q12_xRJpywkmpFExpaVE-47" value="&lt;font style=&quot;font-size: 8px;&quot;&gt;PE&lt;br&gt;&lt;/font&gt;" style="text;html=1;strokeColor=none;fillColor=none;align=center;verticalAlign=middle;whiteSpace=wrap;rounded=0;" parent="1" vertex="1">
          <mxGeometry x="119" y="178" width="25" height="14" as="geometry" />
        </mxCell>
        <mxCell id="Q12_xRJpywkmpFExpaVE-48" value="&lt;font style=&quot;font-size: 8px;&quot;&gt;PI&lt;br&gt;&lt;/font&gt;" style="text;html=1;strokeColor=none;fillColor=none;align=center;verticalAlign=middle;whiteSpace=wrap;rounded=0;" parent="1" vertex="1">
          <mxGeometry x="117" y="188" width="25" height="14" as="geometry" />
        </mxCell>
        <mxCell id="Q12_xRJpywkmpFExpaVE-49" value="&lt;font style=&quot;font-size: 8px;&quot;&gt;RJ&lt;br&gt;&lt;/font&gt;" style="text;html=1;strokeColor=none;fillColor=none;align=center;verticalAlign=middle;whiteSpace=wrap;rounded=0;" parent="1" vertex="1">
          <mxGeometry x="119" y="198" width="25" height="14" as="geometry" />
        </mxCell>
        <mxCell id="Q12_xRJpywkmpFExpaVE-50" value="&lt;font style=&quot;font-size: 8px;&quot;&gt;RN&lt;br&gt;&lt;/font&gt;" style="text;html=1;strokeColor=none;fillColor=none;align=center;verticalAlign=middle;whiteSpace=wrap;rounded=0;" parent="1" vertex="1">
          <mxGeometry x="119" y="209" width="25" height="14" as="geometry" />
        </mxCell>
        <mxCell id="Q12_xRJpywkmpFExpaVE-51" value="&lt;font style=&quot;font-size: 8px;&quot;&gt;RS&lt;br&gt;&lt;/font&gt;" style="text;html=1;strokeColor=none;fillColor=none;align=center;verticalAlign=middle;whiteSpace=wrap;rounded=0;" parent="1" vertex="1">
          <mxGeometry x="119" y="220" width="25" height="14" as="geometry" />
        </mxCell>
        <mxCell id="Q12_xRJpywkmpFExpaVE-52" value="&lt;font style=&quot;font-size: 8px;&quot;&gt;RO&lt;br&gt;&lt;/font&gt;" style="text;html=1;strokeColor=none;fillColor=none;align=center;verticalAlign=middle;whiteSpace=wrap;rounded=0;" parent="1" vertex="1">
          <mxGeometry x="216" y="10" width="25" height="14" as="geometry" />
        </mxCell>
        <mxCell id="Q12_xRJpywkmpFExpaVE-53" value="&lt;font style=&quot;font-size: 8px;&quot;&gt;RR&lt;br&gt;&lt;/font&gt;" style="text;html=1;strokeColor=none;fillColor=none;align=center;verticalAlign=middle;whiteSpace=wrap;rounded=0;" parent="1" vertex="1">
          <mxGeometry x="215" y="21" width="25" height="14" as="geometry" />
        </mxCell>
        <mxCell id="Q12_xRJpywkmpFExpaVE-54" value="&lt;font style=&quot;font-size: 8px;&quot;&gt;SC&lt;br&gt;&lt;/font&gt;" style="text;html=1;strokeColor=none;fillColor=none;align=center;verticalAlign=middle;whiteSpace=wrap;rounded=0;" parent="1" vertex="1">
          <mxGeometry x="215" y="32" width="25" height="14" as="geometry" />
        </mxCell>
        <mxCell id="Q12_xRJpywkmpFExpaVE-55" value="&lt;font style=&quot;font-size: 8px;&quot;&gt;SP&lt;br&gt;&lt;/font&gt;" style="text;html=1;strokeColor=none;fillColor=none;align=center;verticalAlign=middle;whiteSpace=wrap;rounded=0;" parent="1" vertex="1">
          <mxGeometry x="215" y="43" width="25" height="14" as="geometry" />
        </mxCell>
        <mxCell id="Q12_xRJpywkmpFExpaVE-56" value="&lt;font style=&quot;font-size: 8px;&quot;&gt;SE&lt;br&gt;&lt;/font&gt;" style="text;html=1;strokeColor=none;fillColor=none;align=center;verticalAlign=middle;whiteSpace=wrap;rounded=0;" parent="1" vertex="1">
          <mxGeometry x="215" y="54" width="25" height="14" as="geometry" />
        </mxCell>
        <mxCell id="Q12_xRJpywkmpFExpaVE-57" value="&lt;font style=&quot;font-size: 8px;&quot;&gt;TO&lt;br&gt;&lt;/font&gt;" style="text;html=1;strokeColor=none;fillColor=none;align=center;verticalAlign=middle;whiteSpace=wrap;rounded=0;" parent="1" vertex="1">
          <mxGeometry x="215" y="65" width="25" height="14" as="geometry" />
        </mxCell>
        <mxCell id="Q12_xRJpywkmpFExpaVE-58" value="&lt;font style=&quot;font-size: 8px;&quot;&gt;DF&lt;br&gt;&lt;/font&gt;" style="text;html=1;strokeColor=none;fillColor=none;align=center;verticalAlign=middle;whiteSpace=wrap;rounded=0;" parent="1" vertex="1">
          <mxGeometry x="216" y="76" width="25" height="14" as="geometry" />
        </mxCell>
        <mxCell id="Q12_xRJpywkmpFExpaVE-64" value="" style="ellipse;whiteSpace=wrap;html=1;aspect=fixed;" parent="1" vertex="1">
          <mxGeometry x="142" y="18" width="8" height="8" as="geometry" />
        </mxCell>
        <mxCell id="Q12_xRJpywkmpFExpaVE-65" value="" style="ellipse;whiteSpace=wrap;html=1;aspect=fixed;" parent="1" vertex="1">
          <mxGeometry x="142" y="29" width="8" height="8" as="geometry" />
        </mxCell>
        <mxCell id="Q12_xRJpywkmpFExpaVE-66" value="" style="ellipse;whiteSpace=wrap;html=1;aspect=fixed;" parent="1" vertex="1">
          <mxGeometry x="142" y="41" width="8" height="8" as="geometry" />
        </mxCell>
        <mxCell id="Q12_xRJpywkmpFExpaVE-67" value="" style="ellipse;whiteSpace=wrap;html=1;aspect=fixed;" parent="1" vertex="1">
          <mxGeometry x="142" y="52" width="8" height="8" as="geometry" />
        </mxCell>
        <mxCell id="Q12_xRJpywkmpFExpaVE-68" value="" style="ellipse;whiteSpace=wrap;html=1;aspect=fixed;" parent="1" vertex="1">
          <mxGeometry x="142" y="62" width="8" height="8" as="geometry" />
        </mxCell>
        <mxCell id="Q12_xRJpywkmpFExpaVE-69" value="" style="ellipse;whiteSpace=wrap;html=1;aspect=fixed;" parent="1" vertex="1">
          <mxGeometry x="142" y="73" width="8" height="8" as="geometry" />
        </mxCell>
        <mxCell id="Q12_xRJpywkmpFExpaVE-70" value="" style="ellipse;whiteSpace=wrap;html=1;aspect=fixed;" parent="1" vertex="1">
          <mxGeometry x="142" y="84" width="8" height="8" as="geometry" />
        </mxCell>
        <mxCell id="Q12_xRJpywkmpFExpaVE-71" value="" style="ellipse;whiteSpace=wrap;html=1;aspect=fixed;" parent="1" vertex="1">
          <mxGeometry x="142" y="95" width="8" height="8" as="geometry" />
        </mxCell>
        <mxCell id="Q12_xRJpywkmpFExpaVE-72" value="" style="ellipse;whiteSpace=wrap;html=1;aspect=fixed;" parent="1" vertex="1">
          <mxGeometry x="142" y="106" width="8" height="8" as="geometry" />
        </mxCell>
        <mxCell id="Q12_xRJpywkmpFExpaVE-73" value="" style="ellipse;whiteSpace=wrap;html=1;aspect=fixed;" parent="1" vertex="1">
          <mxGeometry x="142" y="118" width="8" height="8" as="geometry" />
        </mxCell>
        <mxCell id="Q12_xRJpywkmpFExpaVE-74" value="" style="ellipse;whiteSpace=wrap;html=1;aspect=fixed;" parent="1" vertex="1">
          <mxGeometry x="142" y="129" width="8" height="8" as="geometry" />
        </mxCell>
        <mxCell id="Q12_xRJpywkmpFExpaVE-75" value="" style="ellipse;whiteSpace=wrap;html=1;aspect=fixed;" parent="1" vertex="1">
          <mxGeometry x="142" y="140" width="8" height="8" as="geometry" />
        </mxCell>
        <mxCell id="Q12_xRJpywkmpFExpaVE-76" value="" style="ellipse;whiteSpace=wrap;html=1;aspect=fixed;" parent="1" vertex="1">
          <mxGeometry x="142" y="151" width="8" height="8" as="geometry" />
        </mxCell>
        <mxCell id="Q12_xRJpywkmpFExpaVE-77" value="" style="ellipse;whiteSpace=wrap;html=1;aspect=fixed;" parent="1" vertex="1">
          <mxGeometry x="142" y="161" width="8" height="8" as="geometry" />
        </mxCell>
        <mxCell id="Q12_xRJpywkmpFExpaVE-78" value="" style="ellipse;whiteSpace=wrap;html=1;aspect=fixed;" parent="1" vertex="1">
          <mxGeometry x="142" y="171" width="8" height="8" as="geometry" />
        </mxCell>
        <mxCell id="Q12_xRJpywkmpFExpaVE-79" value="" style="ellipse;whiteSpace=wrap;html=1;aspect=fixed;" parent="1" vertex="1">
          <mxGeometry x="142" y="182" width="8" height="8" as="geometry" />
        </mxCell>
        <mxCell id="Q12_xRJpywkmpFExpaVE-80" value="" style="ellipse;whiteSpace=wrap;html=1;aspect=fixed;" parent="1" vertex="1">
          <mxGeometry x="142" y="192" width="8" height="8" as="geometry" />
        </mxCell>
        <mxCell id="Q12_xRJpywkmpFExpaVE-81" value="" style="ellipse;whiteSpace=wrap;html=1;aspect=fixed;" parent="1" vertex="1">
          <mxGeometry x="142" y="202" width="8" height="8" as="geometry" />
        </mxCell>
        <mxCell id="Q12_xRJpywkmpFExpaVE-82" value="" style="ellipse;whiteSpace=wrap;html=1;aspect=fixed;" parent="1" vertex="1">
          <mxGeometry x="142" y="213" width="8" height="8" as="geometry" />
        </mxCell>
        <mxCell id="Q12_xRJpywkmpFExpaVE-83" value="" style="ellipse;whiteSpace=wrap;html=1;aspect=fixed;" parent="1" vertex="1">
          <mxGeometry x="142" y="224" width="8" height="8" as="geometry" />
        </mxCell>
        <mxCell id="Q12_xRJpywkmpFExpaVE-84" value="" style="ellipse;whiteSpace=wrap;html=1;aspect=fixed;" parent="1" vertex="1">
          <mxGeometry x="237" y="14" width="8" height="8" as="geometry" />
        </mxCell>
        <mxCell id="Q12_xRJpywkmpFExpaVE-85" value="" style="ellipse;whiteSpace=wrap;html=1;aspect=fixed;" parent="1" vertex="1">
          <mxGeometry x="237" y="25" width="8" height="8" as="geometry" />
        </mxCell>
        <mxCell id="Q12_xRJpywkmpFExpaVE-86" value="" style="ellipse;whiteSpace=wrap;html=1;aspect=fixed;" parent="1" vertex="1">
          <mxGeometry x="237" y="36" width="8" height="8" as="geometry" />
        </mxCell>
        <mxCell id="Q12_xRJpywkmpFExpaVE-87" value="" style="ellipse;whiteSpace=wrap;html=1;aspect=fixed;" parent="1" vertex="1">
          <mxGeometry x="237" y="47" width="8" height="8" as="geometry" />
        </mxCell>
        <mxCell id="Q12_xRJpywkmpFExpaVE-88" value="" style="ellipse;whiteSpace=wrap;html=1;aspect=fixed;" parent="1" vertex="1">
          <mxGeometry x="237" y="58" width="8" height="8" as="geometry" />
        </mxCell>
        <mxCell id="Q12_xRJpywkmpFExpaVE-89" value="" style="ellipse;whiteSpace=wrap;html=1;aspect=fixed;" parent="1" vertex="1">
          <mxGeometry x="237" y="69" width="8" height="8" as="geometry" />
        </mxCell>
        <mxCell id="Q12_xRJpywkmpFExpaVE-90" value="" style="ellipse;whiteSpace=wrap;html=1;aspect=fixed;" parent="1" vertex="1">
          <mxGeometry x="237" y="80" width="8" height="8" as="geometry" />
        </mxCell>
        <mxCell id="Q12_xRJpywkmpFExpaVE-91" value="&lt;font style=&quot;font-size: 8px;&quot;&gt;Norte&lt;/font&gt;" style="text;html=1;strokeColor=none;fillColor=none;align=center;verticalAlign=middle;whiteSpace=wrap;rounded=0;" parent="1" vertex="1">
          <mxGeometry x="111.00000000000003" y="414.5" width="40" height="21" as="geometry" />
        </mxCell>
        <mxCell id="Q12_xRJpywkmpFExpaVE-92" value="&lt;font style=&quot;font-size: 8px;&quot;&gt;Nordeste&lt;/font&gt;" style="text;html=1;strokeColor=none;fillColor=none;align=center;verticalAlign=middle;whiteSpace=wrap;rounded=0;" parent="1" vertex="1">
          <mxGeometry x="68" y="414.5" width="40" height="21" as="geometry" />
        </mxCell>
        <mxCell id="Q12_xRJpywkmpFExpaVE-93" value="&lt;font style=&quot;font-size: 8px;&quot;&gt;Centro-Oeste&lt;/font&gt;" style="text;html=1;strokeColor=none;fillColor=none;align=center;verticalAlign=middle;whiteSpace=wrap;rounded=0;" parent="1" vertex="1">
          <mxGeometry x="143" y="414.5" width="55" height="21" as="geometry" />
        </mxCell>
        <mxCell id="Q12_xRJpywkmpFExpaVE-94" value="&lt;font style=&quot;font-size: 8px;&quot;&gt;Sudeste&lt;br&gt;&lt;/font&gt;" style="text;html=1;strokeColor=none;fillColor=none;align=center;verticalAlign=middle;whiteSpace=wrap;rounded=0;" parent="1" vertex="1">
          <mxGeometry x="206" y="414.5" width="40" height="21" as="geometry" />
        </mxCell>
        <mxCell id="Q12_xRJpywkmpFExpaVE-95" value="&lt;font style=&quot;font-size: 8px;&quot;&gt;Sul&lt;/font&gt;" style="text;html=1;strokeColor=none;fillColor=none;align=center;verticalAlign=middle;whiteSpace=wrap;rounded=0;" parent="1" vertex="1">
          <mxGeometry x="246" y="416" width="40" height="21" as="geometry" />
        </mxCell>
        <mxCell id="Q12_xRJpywkmpFExpaVE-96" value="" style="ellipse;whiteSpace=wrap;html=1;aspect=fixed;" parent="1" vertex="1">
          <mxGeometry x="83" y="410" width="8" height="8" as="geometry" />
        </mxCell>
        <mxCell id="Q12_xRJpywkmpFExpaVE-97" value="" style="ellipse;whiteSpace=wrap;html=1;aspect=fixed;" parent="1" vertex="1">
          <mxGeometry x="127" y="410" width="8" height="8" as="geometry" />
        </mxCell>
        <mxCell id="Q12_xRJpywkmpFExpaVE-98" value="" style="ellipse;whiteSpace=wrap;html=1;aspect=fixed;" parent="1" vertex="1">
          <mxGeometry x="262" y="408" width="8" height="8" as="geometry" />
        </mxCell>
        <mxCell id="Q12_xRJpywkmpFExpaVE-99" value="" style="ellipse;whiteSpace=wrap;html=1;aspect=fixed;" parent="1" vertex="1">
          <mxGeometry x="170" y="409.5" width="8" height="8" as="geometry" />
        </mxCell>
        <mxCell id="Q12_xRJpywkmpFExpaVE-100" value="" style="ellipse;whiteSpace=wrap;html=1;aspect=fixed;" parent="1" vertex="1">
          <mxGeometry x="222" y="409.5" width="8" height="8" as="geometry" />
        </mxCell>
        <mxCell id="Q12_xRJpywkmpFExpaVE-121" value="" style="endArrow=none;html=1;rounded=0;entryX=0.5;entryY=1;entryDx=0;entryDy=0;exitX=1;exitY=0;exitDx=0;exitDy=0;" parent="1" source="Q12_xRJpywkmpFExpaVE-98" target="Q12_xRJpywkmpFExpaVE-6" edge="1">
          <mxGeometry width="50" height="50" relative="1" as="geometry">
            <mxPoint x="261" y="406" as="sourcePoint" />
            <mxPoint x="304" y="380" as="targetPoint" />
          </mxGeometry>
        </mxCell>
        <mxCell id="Q12_xRJpywkmpFExpaVE-122" value="" style="endArrow=none;html=1;rounded=0;exitX=0;exitY=0;exitDx=0;exitDy=0;" parent="1" source="Q12_xRJpywkmpFExpaVE-100" edge="1">
          <mxGeometry width="50" height="50" relative="1" as="geometry">
            <mxPoint x="254" y="430" as="sourcePoint" />
            <mxPoint x="186" y="359" as="targetPoint" />
          </mxGeometry>
        </mxCell>
        <mxCell id="Q12_xRJpywkmpFExpaVE-123" value="" style="endArrow=none;html=1;rounded=0;exitX=0.5;exitY=0;exitDx=0;exitDy=0;entryX=0.5;entryY=1;entryDx=0;entryDy=0;" parent="1" source="Q12_xRJpywkmpFExpaVE-99" target="Q12_xRJpywkmpFExpaVE-6" edge="1">
          <mxGeometry width="50" height="50" relative="1" as="geometry">
            <mxPoint x="136" y="402" as="sourcePoint" />
            <mxPoint x="186" y="363" as="targetPoint" />
          </mxGeometry>
        </mxCell>
        <mxCell id="Q12_xRJpywkmpFExpaVE-124" value="" style="endArrow=none;html=1;rounded=0;entryX=0.5;entryY=0;entryDx=0;entryDy=0;" parent="1" target="Q12_xRJpywkmpFExpaVE-97" edge="1">
          <mxGeometry width="50" height="50" relative="1" as="geometry">
            <mxPoint x="185" y="359" as="sourcePoint" />
            <mxPoint x="304" y="380" as="targetPoint" />
          </mxGeometry>
        </mxCell>
        <mxCell id="Q12_xRJpywkmpFExpaVE-125" value="" style="endArrow=none;html=1;rounded=0;entryX=0.464;entryY=1.032;entryDx=0;entryDy=0;entryPerimeter=0;exitX=0.5;exitY=0;exitDx=0;exitDy=0;" parent="1" source="Q12_xRJpywkmpFExpaVE-96" target="Q12_xRJpywkmpFExpaVE-6" edge="1">
          <mxGeometry width="50" height="50" relative="1" as="geometry">
            <mxPoint x="254" y="430" as="sourcePoint" />
            <mxPoint x="304" y="380" as="targetPoint" />
          </mxGeometry>
        </mxCell>
        <mxCell id="Q12_xRJpywkmpFExpaVE-126" value="Pertence" style="rhombus;whiteSpace=wrap;html=1;fontStyle=2;labelBackgroundColor=none;rounded=0;fontSize=8;" parent="1" vertex="1">
          <mxGeometry x="280.97" y="310" width="59" height="59" as="geometry" />
        </mxCell>
        <mxCell id="Q12_xRJpywkmpFExpaVE-129" value="" style="endArrow=none;html=1;rounded=0;entryX=0.5;entryY=0;entryDx=0;entryDy=0;exitX=1;exitY=0.5;exitDx=0;exitDy=0;" parent="1" source="Q12_xRJpywkmpFExpaVE-90" target="iLDF7jWk_mezcc8OdMnJ-2" edge="1">
          <mxGeometry width="50" height="50" relative="1" as="geometry">
            <mxPoint x="288" y="67" as="sourcePoint" />
            <mxPoint x="418" y="156" as="targetPoint" />
          </mxGeometry>
        </mxCell>
        <mxCell id="nDceX-rCqI_0uPZMgdkn-4" value="" style="endArrow=none;html=1;rounded=0;exitX=0.5;exitY=0;exitDx=0;exitDy=0;entryX=1;entryY=0.5;entryDx=0;entryDy=0;" edge="1" parent="1" source="iLDF7jWk_mezcc8OdMnJ-2" target="Q12_xRJpywkmpFExpaVE-89">
          <mxGeometry width="50" height="50" relative="1" as="geometry">
            <mxPoint x="130" y="118" as="sourcePoint" />
            <mxPoint x="180" y="68" as="targetPoint" />
          </mxGeometry>
        </mxCell>
        <mxCell id="nDceX-rCqI_0uPZMgdkn-6" value="" style="endArrow=none;html=1;rounded=0;entryX=0.5;entryY=0;entryDx=0;entryDy=0;exitX=1;exitY=0.5;exitDx=0;exitDy=0;" edge="1" parent="1" source="Q12_xRJpywkmpFExpaVE-88" target="iLDF7jWk_mezcc8OdMnJ-2">
          <mxGeometry width="50" height="50" relative="1" as="geometry">
            <mxPoint x="130" y="118" as="sourcePoint" />
            <mxPoint x="180" y="68" as="targetPoint" />
          </mxGeometry>
        </mxCell>
        <mxCell id="nDceX-rCqI_0uPZMgdkn-7" value="" style="endArrow=none;html=1;rounded=0;exitX=0.5;exitY=0;exitDx=0;exitDy=0;entryX=1;entryY=0.5;entryDx=0;entryDy=0;" edge="1" parent="1" source="iLDF7jWk_mezcc8OdMnJ-2" target="Q12_xRJpywkmpFExpaVE-87">
          <mxGeometry width="50" height="50" relative="1" as="geometry">
            <mxPoint x="130" y="118" as="sourcePoint" />
            <mxPoint x="180" y="68" as="targetPoint" />
          </mxGeometry>
        </mxCell>
        <mxCell id="nDceX-rCqI_0uPZMgdkn-8" value="" style="endArrow=none;html=1;rounded=0;exitX=0.5;exitY=0;exitDx=0;exitDy=0;entryX=1;entryY=0.5;entryDx=0;entryDy=0;" edge="1" parent="1" source="iLDF7jWk_mezcc8OdMnJ-2" target="Q12_xRJpywkmpFExpaVE-86">
          <mxGeometry width="50" height="50" relative="1" as="geometry">
            <mxPoint x="130" y="118" as="sourcePoint" />
            <mxPoint x="227" y="21" as="targetPoint" />
          </mxGeometry>
        </mxCell>
        <mxCell id="nDceX-rCqI_0uPZMgdkn-9" value="" style="endArrow=none;html=1;rounded=0;exitX=0.5;exitY=0;exitDx=0;exitDy=0;entryX=1;entryY=0.5;entryDx=0;entryDy=0;" edge="1" parent="1" source="iLDF7jWk_mezcc8OdMnJ-2" target="Q12_xRJpywkmpFExpaVE-85">
          <mxGeometry width="50" height="50" relative="1" as="geometry">
            <mxPoint x="130" y="118" as="sourcePoint" />
            <mxPoint x="180" y="68" as="targetPoint" />
          </mxGeometry>
        </mxCell>
        <mxCell id="nDceX-rCqI_0uPZMgdkn-10" value="" style="endArrow=none;html=1;rounded=0;exitX=0.5;exitY=0;exitDx=0;exitDy=0;entryX=1;entryY=0.5;entryDx=0;entryDy=0;" edge="1" parent="1" source="iLDF7jWk_mezcc8OdMnJ-2" target="Q12_xRJpywkmpFExpaVE-84">
          <mxGeometry width="50" height="50" relative="1" as="geometry">
            <mxPoint x="320" y="130" as="sourcePoint" />
            <mxPoint x="195" y="42" as="targetPoint" />
          </mxGeometry>
        </mxCell>
        <mxCell id="nDceX-rCqI_0uPZMgdkn-11" value="" style="endArrow=none;html=1;rounded=0;entryX=0;entryY=0.5;entryDx=0;entryDy=0;exitX=1;exitY=0.5;exitDx=0;exitDy=0;" edge="1" parent="1" source="Q12_xRJpywkmpFExpaVE-64" target="iLDF7jWk_mezcc8OdMnJ-2">
          <mxGeometry width="50" height="50" relative="1" as="geometry">
            <mxPoint x="135" y="109" as="sourcePoint" />
            <mxPoint x="180" y="116" as="targetPoint" />
          </mxGeometry>
        </mxCell>
        <mxCell id="nDceX-rCqI_0uPZMgdkn-12" value="" style="endArrow=none;html=1;rounded=0;exitX=1;exitY=0.5;exitDx=0;exitDy=0;" edge="1" parent="1">
          <mxGeometry width="50" height="50" relative="1" as="geometry">
            <mxPoint x="150" y="33" as="sourcePoint" />
            <mxPoint x="264" y="140" as="targetPoint" />
          </mxGeometry>
        </mxCell>
        <mxCell id="nDceX-rCqI_0uPZMgdkn-13" value="" style="endArrow=none;html=1;rounded=0;entryX=1;entryY=0.5;entryDx=0;entryDy=0;" edge="1" parent="1" target="Q12_xRJpywkmpFExpaVE-66">
          <mxGeometry width="50" height="50" relative="1" as="geometry">
            <mxPoint x="266" y="143" as="sourcePoint" />
            <mxPoint x="180" y="68" as="targetPoint" />
          </mxGeometry>
        </mxCell>
        <mxCell id="nDceX-rCqI_0uPZMgdkn-14" value="" style="endArrow=none;html=1;rounded=0;entryX=1;entryY=0.5;entryDx=0;entryDy=0;exitX=0;exitY=0.5;exitDx=0;exitDy=0;" edge="1" parent="1" source="iLDF7jWk_mezcc8OdMnJ-2" target="Q12_xRJpywkmpFExpaVE-67">
          <mxGeometry width="50" height="50" relative="1" as="geometry">
            <mxPoint x="130" y="118" as="sourcePoint" />
            <mxPoint x="180" y="68" as="targetPoint" />
          </mxGeometry>
        </mxCell>
        <mxCell id="nDceX-rCqI_0uPZMgdkn-15" value="" style="endArrow=none;html=1;rounded=0;entryX=0;entryY=0.5;entryDx=0;entryDy=0;exitX=1;exitY=0.5;exitDx=0;exitDy=0;" edge="1" parent="1" source="Q12_xRJpywkmpFExpaVE-68" target="iLDF7jWk_mezcc8OdMnJ-2">
          <mxGeometry width="50" height="50" relative="1" as="geometry">
            <mxPoint x="130" y="118" as="sourcePoint" />
            <mxPoint x="180" y="68" as="targetPoint" />
          </mxGeometry>
        </mxCell>
        <mxCell id="nDceX-rCqI_0uPZMgdkn-16" value="" style="endArrow=none;html=1;rounded=0;entryX=0;entryY=0.5;entryDx=0;entryDy=0;exitX=1;exitY=0.5;exitDx=0;exitDy=0;" edge="1" parent="1" source="Q12_xRJpywkmpFExpaVE-69" target="iLDF7jWk_mezcc8OdMnJ-2">
          <mxGeometry width="50" height="50" relative="1" as="geometry">
            <mxPoint x="130" y="118" as="sourcePoint" />
            <mxPoint x="180" y="68" as="targetPoint" />
          </mxGeometry>
        </mxCell>
        <mxCell id="nDceX-rCqI_0uPZMgdkn-17" value="" style="endArrow=none;html=1;rounded=0;entryX=0;entryY=0.5;entryDx=0;entryDy=0;exitX=1;exitY=0.5;exitDx=0;exitDy=0;" edge="1" parent="1" source="Q12_xRJpywkmpFExpaVE-70" target="iLDF7jWk_mezcc8OdMnJ-2">
          <mxGeometry width="50" height="50" relative="1" as="geometry">
            <mxPoint x="130" y="118" as="sourcePoint" />
            <mxPoint x="180" y="68" as="targetPoint" />
          </mxGeometry>
        </mxCell>
        <mxCell id="nDceX-rCqI_0uPZMgdkn-18" value="" style="endArrow=none;html=1;rounded=0;exitX=0;exitY=0.5;exitDx=0;exitDy=0;entryX=1;entryY=0.5;entryDx=0;entryDy=0;" edge="1" parent="1" source="iLDF7jWk_mezcc8OdMnJ-2" target="Q12_xRJpywkmpFExpaVE-71">
          <mxGeometry width="50" height="50" relative="1" as="geometry">
            <mxPoint x="130" y="118" as="sourcePoint" />
            <mxPoint x="180" y="68" as="targetPoint" />
          </mxGeometry>
        </mxCell>
        <mxCell id="nDceX-rCqI_0uPZMgdkn-19" value="" style="endArrow=none;html=1;rounded=0;entryX=0;entryY=0.5;entryDx=0;entryDy=0;exitX=1;exitY=0.5;exitDx=0;exitDy=0;" edge="1" parent="1" source="Q12_xRJpywkmpFExpaVE-72" target="iLDF7jWk_mezcc8OdMnJ-2">
          <mxGeometry width="50" height="50" relative="1" as="geometry">
            <mxPoint x="130" y="118" as="sourcePoint" />
            <mxPoint x="180" y="68" as="targetPoint" />
          </mxGeometry>
        </mxCell>
        <mxCell id="nDceX-rCqI_0uPZMgdkn-20" value="" style="endArrow=none;html=1;rounded=0;entryX=1;entryY=0.5;entryDx=0;entryDy=0;" edge="1" parent="1" target="Q12_xRJpywkmpFExpaVE-73">
          <mxGeometry width="50" height="50" relative="1" as="geometry">
            <mxPoint x="266" y="142" as="sourcePoint" />
            <mxPoint x="180" y="68" as="targetPoint" />
          </mxGeometry>
        </mxCell>
        <mxCell id="nDceX-rCqI_0uPZMgdkn-21" value="" style="endArrow=none;html=1;rounded=0;exitX=1;exitY=0.5;exitDx=0;exitDy=0;entryX=0;entryY=0.5;entryDx=0;entryDy=0;" edge="1" parent="1" source="Q12_xRJpywkmpFExpaVE-74" target="iLDF7jWk_mezcc8OdMnJ-2">
          <mxGeometry width="50" height="50" relative="1" as="geometry">
            <mxPoint x="130" y="118" as="sourcePoint" />
            <mxPoint x="180" y="68" as="targetPoint" />
          </mxGeometry>
        </mxCell>
        <mxCell id="nDceX-rCqI_0uPZMgdkn-22" value="" style="endArrow=none;html=1;rounded=0;exitX=1;exitY=0.5;exitDx=0;exitDy=0;entryX=0;entryY=0.5;entryDx=0;entryDy=0;" edge="1" parent="1" source="Q12_xRJpywkmpFExpaVE-75" target="iLDF7jWk_mezcc8OdMnJ-2">
          <mxGeometry width="50" height="50" relative="1" as="geometry">
            <mxPoint x="130" y="118" as="sourcePoint" />
            <mxPoint x="180" y="68" as="targetPoint" />
          </mxGeometry>
        </mxCell>
        <mxCell id="nDceX-rCqI_0uPZMgdkn-23" value="" style="endArrow=none;html=1;rounded=0;exitX=1;exitY=0.5;exitDx=0;exitDy=0;entryX=0;entryY=0.5;entryDx=0;entryDy=0;" edge="1" parent="1" source="Q12_xRJpywkmpFExpaVE-76" target="iLDF7jWk_mezcc8OdMnJ-2">
          <mxGeometry width="50" height="50" relative="1" as="geometry">
            <mxPoint x="130" y="118" as="sourcePoint" />
            <mxPoint x="180" y="68" as="targetPoint" />
          </mxGeometry>
        </mxCell>
        <mxCell id="nDceX-rCqI_0uPZMgdkn-24" value="" style="endArrow=none;html=1;rounded=0;exitX=1;exitY=0.5;exitDx=0;exitDy=0;entryX=0;entryY=0.5;entryDx=0;entryDy=0;" edge="1" parent="1" source="Q12_xRJpywkmpFExpaVE-77" target="iLDF7jWk_mezcc8OdMnJ-2">
          <mxGeometry width="50" height="50" relative="1" as="geometry">
            <mxPoint x="130" y="118" as="sourcePoint" />
            <mxPoint x="180" y="68" as="targetPoint" />
          </mxGeometry>
        </mxCell>
        <mxCell id="nDceX-rCqI_0uPZMgdkn-25" value="" style="endArrow=none;html=1;rounded=0;exitX=1;exitY=0.5;exitDx=0;exitDy=0;entryX=0;entryY=0.5;entryDx=0;entryDy=0;" edge="1" parent="1" source="Q12_xRJpywkmpFExpaVE-78" target="iLDF7jWk_mezcc8OdMnJ-2">
          <mxGeometry width="50" height="50" relative="1" as="geometry">
            <mxPoint x="130" y="118" as="sourcePoint" />
            <mxPoint x="180" y="68" as="targetPoint" />
          </mxGeometry>
        </mxCell>
        <mxCell id="nDceX-rCqI_0uPZMgdkn-26" value="" style="endArrow=none;html=1;rounded=0;exitX=1;exitY=0.5;exitDx=0;exitDy=0;entryX=0;entryY=0.5;entryDx=0;entryDy=0;" edge="1" parent="1" source="Q12_xRJpywkmpFExpaVE-79" target="iLDF7jWk_mezcc8OdMnJ-2">
          <mxGeometry width="50" height="50" relative="1" as="geometry">
            <mxPoint x="130" y="214" as="sourcePoint" />
            <mxPoint x="180" y="164" as="targetPoint" />
          </mxGeometry>
        </mxCell>
        <mxCell id="nDceX-rCqI_0uPZMgdkn-27" value="" style="endArrow=none;html=1;rounded=0;entryX=0;entryY=0.5;entryDx=0;entryDy=0;exitX=1;exitY=0.5;exitDx=0;exitDy=0;" edge="1" parent="1" source="Q12_xRJpywkmpFExpaVE-80" target="iLDF7jWk_mezcc8OdMnJ-2">
          <mxGeometry width="50" height="50" relative="1" as="geometry">
            <mxPoint x="148" y="194" as="sourcePoint" />
            <mxPoint x="180" y="164" as="targetPoint" />
          </mxGeometry>
        </mxCell>
        <mxCell id="nDceX-rCqI_0uPZMgdkn-28" value="" style="endArrow=none;html=1;rounded=0;exitX=1;exitY=0.5;exitDx=0;exitDy=0;entryX=0;entryY=0.5;entryDx=0;entryDy=0;" edge="1" parent="1" source="Q12_xRJpywkmpFExpaVE-81" target="iLDF7jWk_mezcc8OdMnJ-2">
          <mxGeometry width="50" height="50" relative="1" as="geometry">
            <mxPoint x="130" y="214" as="sourcePoint" />
            <mxPoint x="180" y="164" as="targetPoint" />
          </mxGeometry>
        </mxCell>
        <mxCell id="nDceX-rCqI_0uPZMgdkn-29" value="" style="endArrow=none;html=1;rounded=0;exitX=1;exitY=0.5;exitDx=0;exitDy=0;entryX=0;entryY=0.5;entryDx=0;entryDy=0;" edge="1" parent="1" source="Q12_xRJpywkmpFExpaVE-82" target="iLDF7jWk_mezcc8OdMnJ-2">
          <mxGeometry width="50" height="50" relative="1" as="geometry">
            <mxPoint x="130" y="214" as="sourcePoint" />
            <mxPoint x="180" y="164" as="targetPoint" />
          </mxGeometry>
        </mxCell>
        <mxCell id="nDceX-rCqI_0uPZMgdkn-30" value="" style="endArrow=none;html=1;rounded=0;exitX=1;exitY=0.5;exitDx=0;exitDy=0;" edge="1" parent="1" source="Q12_xRJpywkmpFExpaVE-83">
          <mxGeometry width="50" height="50" relative="1" as="geometry">
            <mxPoint x="130" y="214" as="sourcePoint" />
            <mxPoint x="266" y="143" as="targetPoint" />
          </mxGeometry>
        </mxCell>
        <mxCell id="nDceX-rCqI_0uPZMgdkn-31" value="" style="endArrow=none;html=1;rounded=0;exitX=1.019;exitY=0.603;exitDx=0;exitDy=0;exitPerimeter=0;entryX=0;entryY=0.5;entryDx=0;entryDy=0;" edge="1" parent="1" source="Q12_xRJpywkmpFExpaVE-6" target="Q12_xRJpywkmpFExpaVE-126">
          <mxGeometry relative="1" as="geometry">
            <mxPoint x="328" y="278" as="sourcePoint" />
            <mxPoint x="488" y="278" as="targetPoint" />
          </mxGeometry>
        </mxCell>
        <mxCell id="nDceX-rCqI_0uPZMgdkn-32" value="1" style="resizable=0;html=1;whiteSpace=wrap;align=right;verticalAlign=bottom;" connectable="0" vertex="1" parent="nDceX-rCqI_0uPZMgdkn-31">
          <mxGeometry x="1" relative="1" as="geometry" />
        </mxCell>
        <mxCell id="nDceX-rCqI_0uPZMgdkn-33" value="" style="endArrow=none;html=1;rounded=0;exitX=0.5;exitY=1;exitDx=0;exitDy=0;entryX=0.5;entryY=0;entryDx=0;entryDy=0;" edge="1" parent="1" source="iLDF7jWk_mezcc8OdMnJ-2" target="Q12_xRJpywkmpFExpaVE-126">
          <mxGeometry relative="1" as="geometry">
            <mxPoint x="328" y="278" as="sourcePoint" />
            <mxPoint x="312" y="303" as="targetPoint" />
          </mxGeometry>
        </mxCell>
        <mxCell id="nDceX-rCqI_0uPZMgdkn-34" value="N" style="resizable=0;html=1;whiteSpace=wrap;align=right;verticalAlign=bottom;" connectable="0" vertex="1" parent="nDceX-rCqI_0uPZMgdkn-33">
          <mxGeometry x="1" relative="1" as="geometry" />
        </mxCell>
      </root>
    </mxGraphModel>
  </diagram>
</mxfile>
